<svg
    height="512pt"
    viewBox="0 0 512 512"
    width="512pt"
    xmlns="http://www.w3.org/2000/svg">
    <g fill="#b0b4b9">
      <path d="m432 64h-96v-32h96zm-128 0h-32v-32h32zm-64 0h-32v-32h32zm-64 0h-96v-32h96zm0 0" />
      <path d="m432 480h-96v-32h96zm-128 0h-32v-32h32zm-64 0h-32v-32h32zm-64 0h-96v-32h96zm0 0" />
      <path d="m64 432h-32v-96h32zm0-128h-32v-32h32zm0-64h-32v-32h32zm0-64h-32v-96h32zm0 0" />
      <path d="m480 432h-32v-96h32zm0-128h-32v-32h32zm0-64h-32v-32h32zm0-64h-32v-96h32zm0 0" />
    </g>
    <path d="m0 416h96v96h-96zm0 0" fill="#e76e54" />
    <path d="m416 416h96v96h-96zm0 0" fill="#e76e54" />
    <path d="m0 0h96v96h-96zm0 0" fill="#e76e54" />
    <path d="m416 0h96v96h-96zm0 0" fill="#e76e54" />
    <path d="m32 32h32v32h-32zm0 0" fill="#fff" />
    <path d="m448 32h32v32h-32zm0 0" fill="#fff" />
    <path d="m32 448h32v32h-32zm0 0" fill="#fff" />
    <path d="m448 448h32v32h-32zm0 0" fill="#fff" />
  </svg>
